<svg width="25" height="21" viewBox="0 0 25 21" fill="none" xmlns="http://www.w3.org/2000/svg">
<path d="M19.375 9.25C16.25 9.25 13.75 11.7891 13.75 14.875C13.75 18 16.25 20.5 19.375 20.5C22.4609 20.5 25 18 25 14.875C25 11.7891 22.4609 9.25 19.375 9.25ZM21.25 15.5H19.1016C18.9062 15.5 18.75 15.3438 18.75 15.1484V12.375C18.75 12.0625 19.0234 11.75 19.375 11.75C19.6875 11.75 20 12.0625 20 12.375V14.25H21.25C21.5625 14.25 21.875 14.5625 21.875 14.875C21.875 15.1875 21.5625 15.5 21.25 15.5ZM8.75 10.5C11.4844 10.5 13.75 8.27344 13.75 5.5C13.75 2.76562 11.4844 0.5 8.75 0.5C5.97656 0.5 3.75 2.76562 3.75 5.5C3.75 8.27344 5.97656 10.5 8.75 10.5ZM12.5 14.875C12.5 14.1328 12.6172 13.4297 12.8125 12.7266C12.1484 12.5312 11.4453 12.375 10.7031 12.375H6.75781C3.00781 12.375 0 15.4219 0 19.1719C0 19.9141 0.585938 20.5 1.32812 20.5H15.4297C13.6328 19.2891 12.5 17.2188 12.5 14.875Z" fill="#010564"/>
</svg>
